<svg width="552" height="266" viewBox="0 0 552 266" fill="none" xmlns="http://www.w3.org/2000/svg">
<g clip-path="url(#clip0_37_388)">
<circle cx="1.5" cy="1.5" r="1.5" fill="#D2D6DB"/>
<circle cx="24.5" cy="1.5" r="1.5" fill="#D2D6DB"/>
<circle cx="47.5" cy="1.5" r="1.5" fill="#D2D6DB"/>
<circle cx="70.5" cy="1.5" r="1.5" fill="#D2D6DB"/>
<circle cx="93.5" cy="1.5" r="1.5" fill="#D2D6DB"/>
<circle cx="1.5" cy="24.5" r="1.5" fill="#D2D6DB"/>
<circle cx="24.5" cy="24.5" r="1.5" fill="#D2D6DB"/>
<circle cx="47.5" cy="24.5" r="1.5" fill="#D2D6DB"/>
<circle cx="70.5" cy="24.5" r="1.5" fill="#D2D6DB"/>
<circle cx="93.5" cy="24.5" r="1.5" fill="#D2D6DB"/>
<circle cx="1.5" cy="47.5" r="1.5" fill="#D2D6DB"/>
<circle cx="24.5" cy="47.5" r="1.5" fill="#D2D6DB"/>
<circle cx="47.5" cy="47.5" r="1.5" fill="#D2D6DB"/>
<circle cx="70.5" cy="47.5" r="1.5" fill="#D2D6DB"/>
<circle cx="93.5" cy="47.5" r="1.5" fill="#D2D6DB"/>
<circle cx="1.5" cy="70.5" r="1.5" fill="#D2D6DB"/>
<circle cx="24.5" cy="70.5" r="1.5" fill="#D2D6DB"/>
<circle cx="47.5" cy="70.5" r="1.5" fill="#D2D6DB"/>
<circle cx="70.5" cy="70.5" r="1.5" fill="#D2D6DB"/>
<circle cx="93.5" cy="70.5" r="1.5" fill="#D2D6DB"/>
</g>
<g clip-path="url(#clip1_37_388)">
<circle cx="114.5" cy="1.5" r="1.5" fill="#D2D6DB"/>
<circle cx="137.5" cy="1.5" r="1.5" fill="#D2D6DB"/>
<circle cx="160.5" cy="1.5" r="1.5" fill="#D2D6DB"/>
<circle cx="183.5" cy="1.5" r="1.5" fill="#D2D6DB"/>
<circle cx="206.5" cy="1.5" r="1.5" fill="#D2D6DB"/>
<circle cx="114.5" cy="24.5" r="1.5" fill="#D2D6DB"/>
<circle cx="137.5" cy="24.5" r="1.5" fill="#D2D6DB"/>
<circle cx="160.5" cy="24.5" r="1.5" fill="#D2D6DB"/>
<circle cx="183.5" cy="24.5" r="1.5" fill="#D2D6DB"/>
<circle cx="206.5" cy="24.5" r="1.5" fill="#D2D6DB"/>
<circle cx="114.5" cy="47.5" r="1.5" fill="#D2D6DB"/>
<circle cx="137.5" cy="47.5" r="1.5" fill="#D2D6DB"/>
<circle cx="160.5" cy="47.5" r="1.5" fill="#D2D6DB"/>
<circle cx="183.5" cy="47.5" r="1.5" fill="#D2D6DB"/>
<circle cx="206.5" cy="47.5" r="1.5" fill="#D2D6DB"/>
<circle cx="114.5" cy="70.5" r="1.5" fill="#D2D6DB"/>
<circle cx="137.5" cy="70.5" r="1.5" fill="#D2D6DB"/>
<circle cx="160.5" cy="70.5" r="1.5" fill="#D2D6DB"/>
<circle cx="183.5" cy="70.5" r="1.5" fill="#D2D6DB"/>
<circle cx="206.5" cy="70.5" r="1.5" fill="#D2D6DB"/>
</g>
<g clip-path="url(#clip2_37_388)">
<circle cx="114.5" cy="94.5" r="1.5" fill="#D2D6DB"/>
<circle cx="137.5" cy="94.5" r="1.5" fill="#D2D6DB"/>
<circle cx="160.5" cy="94.5" r="1.5" fill="#D2D6DB"/>
<circle cx="183.5" cy="94.5" r="1.5" fill="#D2D6DB"/>
<circle cx="206.5" cy="94.5" r="1.5" fill="#D2D6DB"/>
<circle cx="114.5" cy="117.5" r="1.5" fill="#D2D6DB"/>
<circle cx="137.5" cy="117.5" r="1.5" fill="#D2D6DB"/>
<circle cx="160.5" cy="117.5" r="1.5" fill="#D2D6DB"/>
<circle cx="183.5" cy="117.5" r="1.5" fill="#D2D6DB"/>
<circle cx="206.5" cy="117.5" r="1.5" fill="#D2D6DB"/>
<circle cx="114.5" cy="140.5" r="1.5" fill="#D2D6DB"/>
<circle cx="137.5" cy="140.5" r="1.5" fill="#D2D6DB"/>
<circle cx="160.5" cy="140.5" r="1.5" fill="#D2D6DB"/>
<circle cx="183.5" cy="140.5" r="1.5" fill="#D2D6DB"/>
<circle cx="206.5" cy="140.5" r="1.5" fill="#D2D6DB"/>
<circle cx="114.5" cy="163.5" r="1.5" fill="#D2D6DB"/>
<circle cx="137.5" cy="163.5" r="1.5" fill="#D2D6DB"/>
<circle cx="160.5" cy="163.5" r="1.5" fill="#D2D6DB"/>
<circle cx="183.5" cy="163.5" r="1.5" fill="#D2D6DB"/>
<circle cx="206.5" cy="163.5" r="1.5" fill="#D2D6DB"/>
</g>
<g clip-path="url(#clip3_37_388)">
<circle cx="227.5" cy="1.5" r="1.5" fill="#D2D6DB"/>
<circle cx="250.5" cy="1.5" r="1.5" fill="#D2D6DB"/>
<circle cx="273.5" cy="1.5" r="1.5" fill="#D2D6DB"/>
<circle cx="296.5" cy="1.5" r="1.5" fill="#D2D6DB"/>
<circle cx="319.5" cy="1.5" r="1.5" fill="#D2D6DB"/>
<circle cx="227.5" cy="24.5" r="1.5" fill="#D2D6DB"/>
<circle cx="250.5" cy="24.5" r="1.5" fill="#D2D6DB"/>
<circle cx="273.5" cy="24.5" r="1.5" fill="#D2D6DB"/>
<circle cx="296.5" cy="24.5" r="1.5" fill="#D2D6DB"/>
<circle cx="319.5" cy="24.5" r="1.5" fill="#D2D6DB"/>
<circle cx="227.5" cy="47.5" r="1.5" fill="#D2D6DB"/>
<circle cx="250.5" cy="47.5" r="1.5" fill="#D2D6DB"/>
<circle cx="273.5" cy="47.5" r="1.5" fill="#D2D6DB"/>
<circle cx="296.5" cy="47.5" r="1.5" fill="#D2D6DB"/>
<circle cx="319.5" cy="47.5" r="1.5" fill="#D2D6DB"/>
<circle cx="227.5" cy="70.5" r="1.5" fill="#D2D6DB"/>
<circle cx="250.5" cy="70.5" r="1.5" fill="#D2D6DB"/>
<circle cx="273.5" cy="70.5" r="1.5" fill="#D2D6DB"/>
<circle cx="296.5" cy="70.5" r="1.5" fill="#D2D6DB"/>
<circle cx="319.5" cy="70.5" r="1.5" fill="#D2D6DB"/>
</g>
<g clip-path="url(#clip4_37_388)">
<circle cx="227.5" cy="94.5" r="1.5" fill="#D2D6DB"/>
<circle cx="250.5" cy="94.5" r="1.5" fill="#D2D6DB"/>
<circle cx="273.5" cy="94.5" r="1.5" fill="#D2D6DB"/>
<circle cx="296.5" cy="94.5" r="1.5" fill="#D2D6DB"/>
<circle cx="319.5" cy="94.5" r="1.5" fill="#D2D6DB"/>
<circle cx="227.5" cy="117.5" r="1.5" fill="#D2D6DB"/>
<circle cx="250.5" cy="117.5" r="1.5" fill="#D2D6DB"/>
<circle cx="273.5" cy="117.5" r="1.5" fill="#D2D6DB"/>
<circle cx="296.5" cy="117.5" r="1.5" fill="#D2D6DB"/>
<circle cx="319.5" cy="117.5" r="1.5" fill="#D2D6DB"/>
<circle cx="227.5" cy="140.5" r="1.5" fill="#D2D6DB"/>
<circle cx="250.5" cy="140.5" r="1.5" fill="#D2D6DB"/>
<circle cx="273.5" cy="140.5" r="1.5" fill="#D2D6DB"/>
<circle cx="296.5" cy="140.5" r="1.5" fill="#D2D6DB"/>
<circle cx="319.5" cy="140.5" r="1.5" fill="#D2D6DB"/>
<circle cx="227.5" cy="163.5" r="1.5" fill="#D2D6DB"/>
<circle cx="250.5" cy="163.5" r="1.5" fill="#D2D6DB"/>
<circle cx="273.5" cy="163.5" r="1.5" fill="#D2D6DB"/>
<circle cx="296.5" cy="163.5" r="1.5" fill="#D2D6DB"/>
<circle cx="319.5" cy="163.5" r="1.5" fill="#D2D6DB"/>
</g>
<g clip-path="url(#clip5_37_388)">
<circle cx="340.5" cy="1.5" r="1.5" fill="#D2D6DB"/>
<circle cx="363.5" cy="1.5" r="1.5" fill="#D2D6DB"/>
<circle cx="386.5" cy="1.5" r="1.5" fill="#D2D6DB"/>
<circle cx="409.5" cy="1.5" r="1.5" fill="#D2D6DB"/>
<circle cx="432.5" cy="1.5" r="1.5" fill="#D2D6DB"/>
<circle cx="340.5" cy="24.5" r="1.5" fill="#D2D6DB"/>
<circle cx="363.5" cy="24.5" r="1.5" fill="#D2D6DB"/>
<circle cx="386.5" cy="24.5" r="1.5" fill="#D2D6DB"/>
<circle cx="409.5" cy="24.5" r="1.5" fill="#D2D6DB"/>
<circle cx="432.5" cy="24.5" r="1.5" fill="#D2D6DB"/>
<circle cx="340.5" cy="47.5" r="1.5" fill="#D2D6DB"/>
<circle cx="363.5" cy="47.5" r="1.5" fill="#D2D6DB"/>
<circle cx="386.5" cy="47.5" r="1.5" fill="#D2D6DB"/>
<circle cx="409.5" cy="47.5" r="1.5" fill="#D2D6DB"/>
<circle cx="432.5" cy="47.5" r="1.5" fill="#D2D6DB"/>
<circle cx="340.5" cy="70.5" r="1.5" fill="#D2D6DB"/>
<circle cx="363.5" cy="70.5" r="1.5" fill="#D2D6DB"/>
<circle cx="386.5" cy="70.5" r="1.5" fill="#D2D6DB"/>
<circle cx="409.5" cy="70.5" r="1.5" fill="#D2D6DB"/>
<circle cx="432.5" cy="70.5" r="1.5" fill="#D2D6DB"/>
</g>
<g clip-path="url(#clip6_37_388)">
<circle cx="340.5" cy="94.5" r="1.5" fill="#D2D6DB"/>
<circle cx="363.5" cy="94.5" r="1.5" fill="#D2D6DB"/>
<circle cx="386.5" cy="94.5" r="1.5" fill="#D2D6DB"/>
<circle cx="409.5" cy="94.5" r="1.5" fill="#D2D6DB"/>
<circle cx="432.5" cy="94.5" r="1.5" fill="#D2D6DB"/>
<circle cx="340.5" cy="117.5" r="1.5" fill="#D2D6DB"/>
<circle cx="363.5" cy="117.5" r="1.5" fill="#D2D6DB"/>
<circle cx="386.5" cy="117.5" r="1.5" fill="#D2D6DB"/>
<circle cx="409.5" cy="117.5" r="1.5" fill="#D2D6DB"/>
<circle cx="432.5" cy="117.5" r="1.5" fill="#D2D6DB"/>
<circle cx="340.5" cy="140.5" r="1.5" fill="#D2D6DB"/>
<circle cx="363.5" cy="140.5" r="1.5" fill="#D2D6DB"/>
<circle cx="386.5" cy="140.5" r="1.5" fill="#D2D6DB"/>
<circle cx="409.5" cy="140.5" r="1.5" fill="#D2D6DB"/>
<circle cx="432.5" cy="140.5" r="1.5" fill="#D2D6DB"/>
<circle cx="340.5" cy="163.5" r="1.5" fill="#D2D6DB"/>
<circle cx="363.5" cy="163.5" r="1.5" fill="#D2D6DB"/>
<circle cx="386.5" cy="163.5" r="1.5" fill="#D2D6DB"/>
<circle cx="409.5" cy="163.5" r="1.5" fill="#D2D6DB"/>
<circle cx="432.5" cy="163.5" r="1.5" fill="#D2D6DB"/>
</g>
<g clip-path="url(#clip7_37_388)">
<circle cx="453.5" cy="1.5" r="1.5" fill="#D2D6DB"/>
<circle cx="476.5" cy="1.5" r="1.5" fill="#D2D6DB"/>
<circle cx="499.5" cy="1.5" r="1.5" fill="#D2D6DB"/>
<circle cx="522.5" cy="1.5" r="1.5" fill="#D2D6DB"/>
<circle cx="545.5" cy="1.5" r="1.5" fill="#D2D6DB"/>
<circle cx="453.5" cy="24.5" r="1.5" fill="#D2D6DB"/>
<circle cx="476.5" cy="24.5" r="1.5" fill="#D2D6DB"/>
<circle cx="499.5" cy="24.5" r="1.5" fill="#D2D6DB"/>
<circle cx="522.5" cy="24.5" r="1.5" fill="#D2D6DB"/>
<circle cx="545.5" cy="24.5" r="1.5" fill="#D2D6DB"/>
<circle cx="453.5" cy="47.5" r="1.5" fill="#D2D6DB"/>
<circle cx="476.5" cy="47.5" r="1.5" fill="#D2D6DB"/>
<circle cx="499.5" cy="47.5" r="1.5" fill="#D2D6DB"/>
<circle cx="522.5" cy="47.5" r="1.5" fill="#D2D6DB"/>
<circle cx="545.5" cy="47.5" r="1.5" fill="#D2D6DB"/>
<circle cx="453.5" cy="70.5" r="1.5" fill="#D2D6DB"/>
<circle cx="476.5" cy="70.5" r="1.5" fill="#D2D6DB"/>
<circle cx="499.5" cy="70.5" r="1.5" fill="#D2D6DB"/>
<circle cx="522.5" cy="70.5" r="1.5" fill="#D2D6DB"/>
<circle cx="545.5" cy="70.5" r="1.5" fill="#D2D6DB"/>
</g>
<g clip-path="url(#clip8_37_388)">
<circle cx="453.5" cy="94.5" r="1.5" fill="#D2D6DB"/>
<circle cx="476.5" cy="94.5" r="1.5" fill="#D2D6DB"/>
<circle cx="499.5" cy="94.5" r="1.5" fill="#D2D6DB"/>
<circle cx="522.5" cy="94.5" r="1.5" fill="#D2D6DB"/>
<circle cx="545.5" cy="94.5" r="1.5" fill="#D2D6DB"/>
<circle cx="453.5" cy="117.5" r="1.5" fill="#D2D6DB"/>
<circle cx="476.5" cy="117.5" r="1.5" fill="#D2D6DB"/>
<circle cx="499.5" cy="117.5" r="1.5" fill="#D2D6DB"/>
<circle cx="522.5" cy="117.5" r="1.5" fill="#D2D6DB"/>
<circle cx="545.5" cy="117.5" r="1.5" fill="#D2D6DB"/>
<circle cx="453.5" cy="140.5" r="1.5" fill="#D2D6DB"/>
<circle cx="476.5" cy="140.5" r="1.5" fill="#D2D6DB"/>
<circle cx="499.5" cy="140.5" r="1.5" fill="#D2D6DB"/>
<circle cx="522.5" cy="140.5" r="1.5" fill="#D2D6DB"/>
<circle cx="545.5" cy="140.5" r="1.5" fill="#D2D6DB"/>
<circle cx="453.5" cy="163.5" r="1.5" fill="#D2D6DB"/>
<circle cx="476.5" cy="163.5" r="1.5" fill="#D2D6DB"/>
<circle cx="499.5" cy="163.5" r="1.5" fill="#D2D6DB"/>
<circle cx="522.5" cy="163.5" r="1.5" fill="#D2D6DB"/>
<circle cx="545.5" cy="163.5" r="1.5" fill="#D2D6DB"/>
</g>
<g clip-path="url(#clip9_37_388)">
<circle cx="1.5" cy="94.5" r="1.5" fill="#D2D6DB"/>
<circle cx="24.5" cy="94.5" r="1.5" fill="#D2D6DB"/>
<circle cx="47.5" cy="94.5" r="1.5" fill="#D2D6DB"/>
<circle cx="70.5" cy="94.5" r="1.5" fill="#D2D6DB"/>
<circle cx="93.5" cy="94.5" r="1.5" fill="#D2D6DB"/>
<circle cx="1.5" cy="117.5" r="1.5" fill="#D2D6DB"/>
<circle cx="24.5" cy="117.5" r="1.5" fill="#D2D6DB"/>
<circle cx="47.5" cy="117.5" r="1.5" fill="#D2D6DB"/>
<circle cx="70.5" cy="117.5" r="1.5" fill="#D2D6DB"/>
<circle cx="93.5" cy="117.5" r="1.5" fill="#D2D6DB"/>
<circle cx="1.5" cy="140.5" r="1.5" fill="#D2D6DB"/>
<circle cx="24.5" cy="140.5" r="1.5" fill="#D2D6DB"/>
<circle cx="47.5" cy="140.5" r="1.5" fill="#D2D6DB"/>
<circle cx="70.5" cy="140.5" r="1.5" fill="#D2D6DB"/>
<circle cx="93.5" cy="140.5" r="1.5" fill="#D2D6DB"/>
<circle cx="1.5" cy="163.5" r="1.5" fill="#D2D6DB"/>
<circle cx="24.5" cy="163.5" r="1.5" fill="#D2D6DB"/>
<circle cx="47.5" cy="163.5" r="1.5" fill="#D2D6DB"/>
<circle cx="70.5" cy="163.5" r="1.5" fill="#D2D6DB"/>
<circle cx="93.5" cy="163.5" r="1.5" fill="#D2D6DB"/>
</g>
<g clip-path="url(#clip10_37_388)">
<circle cx="1.5" cy="187.5" r="1.5" fill="#D2D6DB"/>
<circle cx="24.5" cy="187.5" r="1.5" fill="#D2D6DB"/>
<circle cx="47.5" cy="187.5" r="1.5" fill="#D2D6DB"/>
<circle cx="70.5" cy="187.5" r="1.5" fill="#D2D6DB"/>
<circle cx="93.5" cy="187.5" r="1.5" fill="#D2D6DB"/>
<circle cx="1.5" cy="210.5" r="1.5" fill="#D2D6DB"/>
<circle cx="24.5" cy="210.5" r="1.5" fill="#D2D6DB"/>
<circle cx="47.5" cy="210.5" r="1.5" fill="#D2D6DB"/>
<circle cx="70.5" cy="210.5" r="1.5" fill="#D2D6DB"/>
<circle cx="93.5" cy="210.5" r="1.5" fill="#D2D6DB"/>
<circle cx="1.5" cy="233.5" r="1.5" fill="#D2D6DB"/>
<circle cx="24.5" cy="233.5" r="1.5" fill="#D2D6DB"/>
<circle cx="47.5" cy="233.5" r="1.5" fill="#D2D6DB"/>
<circle cx="70.5" cy="233.5" r="1.5" fill="#D2D6DB"/>
<circle cx="93.5" cy="233.5" r="1.5" fill="#D2D6DB"/>
<circle cx="1.5" cy="256.5" r="1.5" fill="#D2D6DB"/>
<circle cx="24.5" cy="256.5" r="1.5" fill="#D2D6DB"/>
<circle cx="47.5" cy="256.5" r="1.5" fill="#D2D6DB"/>
<circle cx="70.5" cy="256.5" r="1.5" fill="#D2D6DB"/>
<circle cx="93.5" cy="256.5" r="1.5" fill="#D2D6DB"/>
</g>
<g clip-path="url(#clip11_37_388)">
<circle cx="114.5" cy="187.5" r="1.5" fill="#D2D6DB"/>
<circle cx="137.5" cy="187.5" r="1.5" fill="#D2D6DB"/>
<circle cx="160.5" cy="187.5" r="1.5" fill="#D2D6DB"/>
<circle cx="183.5" cy="187.5" r="1.5" fill="#D2D6DB"/>
<circle cx="206.5" cy="187.5" r="1.5" fill="#D2D6DB"/>
<circle cx="114.5" cy="210.5" r="1.5" fill="#D2D6DB"/>
<circle cx="137.5" cy="210.5" r="1.5" fill="#D2D6DB"/>
<circle cx="160.5" cy="210.5" r="1.5" fill="#D2D6DB"/>
<circle cx="183.5" cy="210.5" r="1.5" fill="#D2D6DB"/>
<circle cx="206.5" cy="210.5" r="1.5" fill="#D2D6DB"/>
<circle cx="114.5" cy="233.5" r="1.5" fill="#D2D6DB"/>
<circle cx="137.5" cy="233.5" r="1.5" fill="#D2D6DB"/>
<circle cx="160.5" cy="233.5" r="1.5" fill="#D2D6DB"/>
<circle cx="183.5" cy="233.5" r="1.5" fill="#D2D6DB"/>
<circle cx="206.5" cy="233.5" r="1.5" fill="#D2D6DB"/>
<circle cx="114.5" cy="256.5" r="1.5" fill="#D2D6DB"/>
<circle cx="137.5" cy="256.5" r="1.5" fill="#D2D6DB"/>
<circle cx="160.5" cy="256.5" r="1.5" fill="#D2D6DB"/>
<circle cx="183.5" cy="256.5" r="1.5" fill="#D2D6DB"/>
<circle cx="206.5" cy="256.5" r="1.5" fill="#D2D6DB"/>
</g>
<g clip-path="url(#clip12_37_388)">
<circle cx="227.5" cy="187.5" r="1.5" fill="#D2D6DB"/>
<circle cx="250.5" cy="187.5" r="1.5" fill="#D2D6DB"/>
<circle cx="273.5" cy="187.5" r="1.5" fill="#D2D6DB"/>
<circle cx="296.5" cy="187.5" r="1.5" fill="#D2D6DB"/>
<circle cx="319.5" cy="187.5" r="1.5" fill="#D2D6DB"/>
<circle cx="227.5" cy="210.5" r="1.5" fill="#D2D6DB"/>
<circle cx="250.5" cy="210.5" r="1.5" fill="#D2D6DB"/>
<circle cx="273.5" cy="210.5" r="1.5" fill="#D2D6DB"/>
<circle cx="296.5" cy="210.5" r="1.5" fill="#D2D6DB"/>
<circle cx="319.5" cy="210.5" r="1.5" fill="#D2D6DB"/>
<circle cx="227.5" cy="233.5" r="1.5" fill="#D2D6DB"/>
<circle cx="250.5" cy="233.5" r="1.5" fill="#D2D6DB"/>
<circle cx="273.5" cy="233.5" r="1.5" fill="#D2D6DB"/>
<circle cx="296.5" cy="233.5" r="1.5" fill="#D2D6DB"/>
<circle cx="319.5" cy="233.5" r="1.5" fill="#D2D6DB"/>
<circle cx="227.5" cy="256.5" r="1.5" fill="#D2D6DB"/>
<circle cx="250.5" cy="256.5" r="1.5" fill="#D2D6DB"/>
<circle cx="273.5" cy="256.5" r="1.5" fill="#D2D6DB"/>
<circle cx="296.5" cy="256.5" r="1.5" fill="#D2D6DB"/>
<circle cx="319.5" cy="256.5" r="1.5" fill="#D2D6DB"/>
</g>
<g clip-path="url(#clip13_37_388)">
<circle cx="340.5" cy="187.5" r="1.5" fill="#D2D6DB"/>
<circle cx="363.5" cy="187.5" r="1.5" fill="#D2D6DB"/>
<circle cx="386.5" cy="187.5" r="1.5" fill="#D2D6DB"/>
<circle cx="409.5" cy="187.5" r="1.5" fill="#D2D6DB"/>
<circle cx="432.5" cy="187.5" r="1.5" fill="#D2D6DB"/>
<circle cx="340.5" cy="210.5" r="1.5" fill="#D2D6DB"/>
<circle cx="363.5" cy="210.5" r="1.5" fill="#D2D6DB"/>
<circle cx="386.5" cy="210.5" r="1.5" fill="#D2D6DB"/>
<circle cx="409.5" cy="210.5" r="1.5" fill="#D2D6DB"/>
<circle cx="432.5" cy="210.5" r="1.5" fill="#D2D6DB"/>
<circle cx="340.5" cy="233.5" r="1.5" fill="#D2D6DB"/>
<circle cx="363.5" cy="233.5" r="1.5" fill="#D2D6DB"/>
<circle cx="386.5" cy="233.5" r="1.5" fill="#D2D6DB"/>
<circle cx="409.5" cy="233.5" r="1.5" fill="#D2D6DB"/>
<circle cx="432.5" cy="233.5" r="1.5" fill="#D2D6DB"/>
<circle cx="340.5" cy="256.5" r="1.5" fill="#D2D6DB"/>
<circle cx="363.5" cy="256.5" r="1.5" fill="#D2D6DB"/>
<circle cx="386.5" cy="256.5" r="1.5" fill="#D2D6DB"/>
<circle cx="409.5" cy="256.5" r="1.5" fill="#D2D6DB"/>
<circle cx="432.5" cy="256.5" r="1.5" fill="#D2D6DB"/>
</g>
<g clip-path="url(#clip14_37_388)">
<circle cx="453.5" cy="187.5" r="1.5" fill="#D2D6DB"/>
<circle cx="476.5" cy="187.5" r="1.5" fill="#D2D6DB"/>
<circle cx="499.5" cy="187.5" r="1.5" fill="#D2D6DB"/>
<circle cx="522.5" cy="187.5" r="1.5" fill="#D2D6DB"/>
<circle cx="545.5" cy="187.5" r="1.5" fill="#D2D6DB"/>
<circle cx="453.5" cy="210.5" r="1.5" fill="#D2D6DB"/>
<circle cx="476.5" cy="210.5" r="1.5" fill="#D2D6DB"/>
<circle cx="499.5" cy="210.5" r="1.5" fill="#D2D6DB"/>
<circle cx="522.5" cy="210.5" r="1.5" fill="#D2D6DB"/>
<circle cx="545.5" cy="210.5" r="1.5" fill="#D2D6DB"/>
<circle cx="453.5" cy="233.5" r="1.5" fill="#D2D6DB"/>
<circle cx="476.5" cy="233.5" r="1.5" fill="#D2D6DB"/>
<circle cx="499.5" cy="233.5" r="1.5" fill="#D2D6DB"/>
<circle cx="522.5" cy="233.5" r="1.5" fill="#D2D6DB"/>
<circle cx="545.5" cy="233.5" r="1.5" fill="#D2D6DB"/>
<circle cx="453.5" cy="256.5" r="1.5" fill="#D2D6DB"/>
<circle cx="476.5" cy="256.5" r="1.5" fill="#D2D6DB"/>
<circle cx="499.5" cy="256.5" r="1.5" fill="#D2D6DB"/>
<circle cx="522.5" cy="256.5" r="1.5" fill="#D2D6DB"/>
<circle cx="545.5" cy="256.5" r="1.5" fill="#D2D6DB"/>
</g>
<defs>
<clipPath id="clip0_37_388">
<rect width="100" height="80" fill="white"/>
</clipPath>
<clipPath id="clip1_37_388">
<rect width="100" height="80" fill="white" transform="translate(113)"/>
</clipPath>
<clipPath id="clip2_37_388">
<rect width="100" height="80" fill="white" transform="translate(113 93)"/>
</clipPath>
<clipPath id="clip3_37_388">
<rect width="100" height="80" fill="white" transform="translate(226)"/>
</clipPath>
<clipPath id="clip4_37_388">
<rect width="100" height="80" fill="white" transform="translate(226 93)"/>
</clipPath>
<clipPath id="clip5_37_388">
<rect width="100" height="80" fill="white" transform="translate(339)"/>
</clipPath>
<clipPath id="clip6_37_388">
<rect width="100" height="80" fill="white" transform="translate(339 93)"/>
</clipPath>
<clipPath id="clip7_37_388">
<rect width="100" height="80" fill="white" transform="translate(452)"/>
</clipPath>
<clipPath id="clip8_37_388">
<rect width="100" height="80" fill="white" transform="translate(452 93)"/>
</clipPath>
<clipPath id="clip9_37_388">
<rect width="100" height="80" fill="white" transform="translate(0 93)"/>
</clipPath>
<clipPath id="clip10_37_388">
<rect width="100" height="80" fill="white" transform="translate(0 186)"/>
</clipPath>
<clipPath id="clip11_37_388">
<rect width="100" height="80" fill="white" transform="translate(113 186)"/>
</clipPath>
<clipPath id="clip12_37_388">
<rect width="100" height="80" fill="white" transform="translate(226 186)"/>
</clipPath>
<clipPath id="clip13_37_388">
<rect width="100" height="80" fill="white" transform="translate(339 186)"/>
</clipPath>
<clipPath id="clip14_37_388">
<rect width="100" height="80" fill="white" transform="translate(452 186)"/>
</clipPath>
</defs>
</svg>
