<?xml version="1.0" standalone="no"?>
<!DOCTYPE svg PUBLIC "-//W3C//DTD SVG 20010904//EN"
 "http://www.w3.org/TR/2001/REC-SVG-20010904/DTD/svg10.dtd">
<svg version="1.0" xmlns="http://www.w3.org/2000/svg"
 width="512.000000pt" height="512.000000pt" viewBox="0 0 512.000000 512.000000"
 preserveAspectRatio="xMidYMid meet">
    <g transform="translate(0.000000,512.000000) scale(0.100000,-0.100000)"
fill="#000000" stroke="none">
        <path d="M2840 4465 c-31 -33 -32 -87 -3 -116 31 -31 91 -29 120 6 69 79 -45
186 -117 110z"/>
        <path d="M1500 4185 c-52 -55 -19 -136 55 -138 74 -2 112 87 60 138 -33 34
-83 34 -115 0z"/>
        <path d="M3203 4092 c-184 -66 -277 -251 -216 -427 27 -75 120 -166 197 -189
113 -36 257 -7 334 67 58 55 85 120 90 217 5 101 -17 172 -73 238 -76 89 -227
131 -332 94z"/>
        <path d="M2245 4008 c-21 -25 -25 -38 -21 -62 15 -72 96 -96 142 -42 32 37 30
71 -5 107 -40 40 -81 39 -116 -3z"/>
        <path d="M1695 3807 c-116 -39 -216 -116 -254 -196 -22 -48 -26 -69 -26 -151
0 -88 3 -100 33 -159 19 -35 54 -85 79 -112 71 -77 185 -110 305 -89 87 15
158 58 207 123 58 77 74 126 75 232 1 83 -2 96 -32 157 -18 36 -51 82 -73 103
-88 79 -228 120 -314 92z"/>
        <path d="M4054 3558 c-24 -11 -44 -48 -44 -81 0 -85 130 -102 160 -21 14 35
-11 91 -45 104 -32 12 -44 12 -71 -2z"/>
        <path d="M992 3500 c-31 -13 -55 -71 -43 -104 22 -57 94 -74 136 -31 62 61
-11 168 -93 135z"/>
        <path d="M2532 3357 c-49 -52 -13 -137 57 -137 68 0 104 78 60 134 -27 35 -86
36 -117 3z"/>
        <path d="M3089 3100 c-29 -17 -43 -66 -29 -100 15 -36 37 -50 80 -50 41 0 80
39 80 80 0 60 -77 101 -131 70z"/>
        <path d="M4442 2945 c-49 -21 -59 -95 -19 -133 73 -69 179 32 117 110 -24 31
-59 39 -98 23z"/>
        <path d="M3934 2910 c-49 -11 -99 -46 -130 -92 -25 -36 -29 -50 -29 -114 0
-64 3 -77 30 -116 34 -48 119 -98 169 -98 121 0 216 95 216 215 0 96 -65 181
-156 204 -48 12 -55 12 -100 1z"/>
        <path d="M1885 2767 c-21 -17 -27 -32 -27 -62 0 -65 60 -103 115 -73 57 30 64
92 16 132 -38 32 -70 33 -104 3z"/>
        <path d="M722 2723 c-22 -9 -44 -63 -37 -94 13 -60 95 -80 140 -34 14 13 25
34 25 45 0 29 -26 76 -45 84 -19 7 -64 7 -83 -1z"/>
        <path d="M2538 2661 c-71 -28 -121 -73 -159 -143 -32 -58 -34 -70 -34 -153 0
-107 22 -163 92 -233 64 -63 132 -92 219 -92 97 0 154 22 223 86 77 71 104
132 105 234 1 66 -3 84 -32 142 -58 119 -157 178 -295 178 -45 -1 -90 -8 -119
-19z"/>
        <path d="M1295 2391 c-101 -46 -156 -125 -163 -235 -6 -93 20 -158 88 -219 56
-50 103 -67 189 -67 133 0 242 89 272 225 10 43 9 61 -6 110 -13 48 -28 70
-78 120 -42 41 -76 65 -103 73 -61 18 -152 15 -199 -7z"/>
        <path d="M3390 2322 c-32 -32 -37 -56 -19 -95 24 -53 87 -60 131 -17 25 26 29
36 24 63 -8 41 -32 65 -73 73 -27 5 -37 1 -63 -24z"/>
        <path d="M4221 2194 c-28 -36 -27 -79 4 -109 50 -51 135 -17 135 54 0 76 -94
112 -139 55z"/>
        <path d="M2093 1800 c-28 -12 -43 -40 -43 -84 0 -48 40 -80 90 -72 73 11 95
93 39 140 -32 27 -50 31 -86 16z"/>
        <path d="M3172 1774 c-32 -13 -56 -62 -45 -92 22 -63 94 -82 138 -37 30 30 32
73 5 107 -24 31 -59 39 -98 22z"/>
        <path d="M3855 1753 c-55 -14 -105 -80 -105 -137 0 -72 67 -136 142 -136 66 0
138 70 138 135 0 84 -95 158 -175 138z"/>
        <path d="M881 1584 c-44 -56 -11 -134 58 -134 49 0 81 32 81 81 0 74 -95 109
-139 53z"/>
        <path d="M2523 1310 c-96 -20 -178 -82 -220 -168 -24 -50 -28 -69 -28 -147 0
-78 4 -97 28 -147 33 -67 90 -121 164 -155 47 -22 65 -25 136 -21 95 4 152 27
212 86 61 60 89 132 90 227 0 71 -4 88 -33 147 -65 132 -211 207 -349 178z"/>
        <path d="M1612 1283 c-22 -9 -44 -63 -37 -94 14 -61 95 -80 142 -33 49 49 10
135 -61 133 -17 0 -37 -3 -44 -6z"/>
        <path d="M3441 1044 c-44 -56 -11 -134 58 -134 49 0 81 32 81 81 0 74 -95 109
-139 53z"/>
    </g>
</svg>