<svg width="404" height="404" viewBox="0 0 404 404" fill="none" xmlns="http://www.w3.org/2000/svg">
<g filter="url(#filter0_d_63_2)">
<path d="M38.6569 190.343L137.343 91.6569C140.467 88.5327 145.533 88.5327 148.657 91.6569L174.883 117.883C178.007 121.007 178.007 126.072 174.883 129.197L113.736 190.343C110.612 193.467 110.612 198.533 113.736 201.657L174.883 262.803C178.007 265.928 178.007 270.993 174.883 274.117L148.657 300.343C145.533 303.467 140.467 303.467 137.343 300.343L38.6569 201.657C35.5327 198.533 35.5327 193.467 38.6569 190.343Z" fill="#FAFAFA"/>
<path d="M166.117 317.803L282.264 201.657C285.388 198.533 285.388 193.467 282.264 190.343L166.117 74.1965C162.993 71.0723 162.993 66.007 166.117 62.8828L192.343 36.6569C195.467 33.5327 200.533 33.5327 203.657 36.6569L357.343 190.343C360.467 193.467 360.467 198.533 357.343 201.657L203.657 355.343C200.533 358.467 195.467 358.467 192.343 355.343L166.117 329.117C162.993 325.993 162.993 320.928 166.117 317.803Z" fill="#FAFAFA"/>
</g>
<defs>
<filter id="filter0_d_63_2" x="0.313721" y="0.313721" width="403.373" height="403.373" filterUnits="userSpaceOnUse" color-interpolation-filters="sRGB">
<feFlood flood-opacity="0" result="BackgroundImageFix"/>
<feColorMatrix in="SourceAlpha" type="matrix" values="0 0 0 0 0 0 0 0 0 0 0 0 0 0 0 0 0 0 127 0" result="hardAlpha"/>
<feOffset dx="4" dy="6"/>
<feGaussianBlur stdDeviation="20"/>
<feComposite in2="hardAlpha" operator="out"/>
<feColorMatrix type="matrix" values="0 0 0 0 0.0588235 0 0 0 0 0.0901961 0 0 0 0 0.164706 0 0 0 0.11 0"/>
<feBlend mode="normal" in2="BackgroundImageFix" result="effect1_dropShadow_63_2"/>
<feBlend mode="normal" in="SourceGraphic" in2="effect1_dropShadow_63_2" result="shape"/>
</filter>
</defs>
</svg>
